<svg xmlns="http://www.w3.org/2000/svg" version="1.1" xmlns:xlink="http://www.w3.org/1999/xlink" xmlns:svgjs="http://svgjs.dev/svgjs" width="600" height="242" preserveAspectRatio="none" viewBox="0 0 600 242"><g mask="url(&quot;#SvgjsMask1093&quot;)" fill="none"><rect width="600" height="242" x="0" y="0" fill="rgba(15, 24, 43, 1)"></rect><path d="M19 242L261 0L325.5 0L83.5 242z" fill="url(&quot;#SvgjsLinearGradient1094&quot;)"></path><path d="M213 242L455 0L611 0L369 242z" fill="url(&quot;#SvgjsLinearGradient1094&quot;)"></path><path d="M584 242L342 0L256.5 0L498.5 242z" fill="url(&quot;#SvgjsLinearGradient1095&quot;)"></path><path d="M392 242L150 0L18 0L260 242z" fill="url(&quot;#SvgjsLinearGradient1095&quot;)"></path><path d="M475.1883964859886 242L600 117.1883964859886L600 242z" fill="url(&quot;#SvgjsLinearGradient1094&quot;)"></path><path d="M0 242L124.8116035140114 242L 0 117.1883964859886z" fill="url(&quot;#SvgjsLinearGradient1095&quot;)"></path></g><defs><mask id="SvgjsMask1093"><rect width="600" height="242" fill="#ffffff"></rect></mask><linearGradient x1="0%" y1="100%" x2="100%" y2="0%" id="SvgjsLinearGradient1094"><stop stop-color="rgba(15, 70, 185, 0.2)" offset="0"></stop><stop stop-opacity="0" stop-color="rgba(15, 70, 185, 0.2)" offset="0.66"></stop></linearGradient><linearGradient x1="100%" y1="100%" x2="0%" y2="0%" id="SvgjsLinearGradient1095"><stop stop-color="rgba(15, 70, 185, 0.2)" offset="0"></stop><stop stop-opacity="0" stop-color="rgba(15, 70, 185, 0.2)" offset="0.66"></stop></linearGradient></defs></svg>