<svg xmlns="http://www.w3.org/2000/svg" version="1.1" xmlns:xlink="http://www.w3.org/1999/xlink" xmlns:svgjs="http://svgjs.dev/svgjs" width="1024" height="414" preserveAspectRatio="none" viewBox="0 0 1024 414"><g mask="url(&quot;#SvgjsMask1016&quot;)" fill="none"><rect width="1024" height="414" x="0" y="0" fill="rgba(242, 248, 255, 1)"></rect><path d="M0,493.701C91.257,491.615,170.596,432.435,239.245,372.272C301.107,318.057,330.551,241.122,370.347,169.132C413.817,90.496,508.781,16.699,483.462,-69.511C457.204,-158.916,325.078,-159.381,255.621,-221.497C198.76,-272.348,183.278,-360.235,116.716,-397.497C43.125,-438.695,-45.009,-450.681,-128.115,-436.32C-216.825,-420.991,-303.938,-382.484,-363.057,-314.591C-422.237,-246.627,-448.505,-154.987,-451.516,-64.918C-454.345,19.702,-414.596,96.261,-379.366,173.25C-344.162,250.181,-311.009,328.777,-246.378,383.371C-176.215,442.638,-91.821,495.8,0,493.701" fill="#8fc3ff"></path><path d="M1024 856.9159999999999C1105.437 837.8140000000001 1128.646 731.088 1195.312 680.566 1254.344 635.829 1346.559 641.47 1388.68 580.544 1432.279 517.481 1425.1309999999999 433.638 1418.8519999999999 357.229 1412.252 276.908 1416.203 178.345 1351.664 130.07799999999997 1285.472 80.57400000000001 1190.94 134.21300000000002 1108.764 125.322 1045.774 118.507 989.965 75.89499999999998 927.147 84.14999999999998 859.05 93.09899999999999 785.725 117.065 745.8820000000001 173.009 706.6 228.167 729.956 303.367 723.049 370.73 716.486 434.73199999999997 695.502 495.665 706.2950000000001 559.091 719.56 637.049 734.181 721.113 791.874 775.196 852.958 832.457 942.486 876.0360000000001 1024 856.9159999999999" fill="#ffffff"></path></g><defs><mask id="SvgjsMask1016"><rect width="1024" height="414" fill="#ffffff"></rect></mask></defs></svg>