<svg xmlns="http://www.w3.org/2000/svg" version="1.1" xmlns:xlink="http://www.w3.org/1999/xlink" xmlns:svgjs="http://svgjs.dev/svgjs" width="1350" height="560" preserveAspectRatio="none" viewBox="0 0 1350 560"><g mask="url(&quot;#SvgjsMask1234&quot;)" fill="none"><path d="M0 460.77L10 471.18L20 429.04L30 443.5L40 447.7L50 506.77L60 443.25L70 496.85L80 544.61L90 514.34L100 508.18L110 520.09L120 484.03L130 468.14L140 479.12L150 441.76L160 476.42L170 483.46L180 465.38L190 460.11L200 516.47L210 508.23L220 449.32L230 513.26L240 492.26L250 530.2L260 481.58L270 504.57L280 514.1L290 465.32L300 412.04L310 349.76L320 313.67L330 285.27L340 350.67L350 396.28L360 412.11L370 363.95L380 356.3L390 405L400 368.93L410 392.47L420 393.53L430 401.74L440 426.27L450 366.31L460 384.61L470 402.2L480 368.64L490 388.3L500 369.64L510 381.52L520 388.06L530 353.2L540 420.32L550 360.4L560 308.35L570 372.21L580 430.96L590 363.9L600 358.5L610 377.83L620 438.63L630 463.35L640 507.34L650 481.45L660 469.71L670 529.29L680 497.44L690 550.13L700 500.66L710 528.08L720 484.83L730 455.8L740 401.16L750 443.63L760 399.73L770 443.52L780 487.72L790 556.8L800 547.74L810 518.23L820 515.43L830 559.61L840 531.49L850 469L860 510.86L870 469.67L880 539.53L890 556.09L900 495.57L910 495.89L920 487.72L930 475.05L940 418.84L950 483.46L960 438.67L970 446.96L980 392.36L990 420.17L1000 467.77L1010 507.55L1020 438.46L1030 401.08L1040 416.08L1050 372.1L1060 360.8L1070 391.16L1080 451.14L1090 481.28L1100 494.95L1110 452.52L1120 521.29L1130 507.19L1140 550.77L1150 556.14L1160 544.28L1170 486.06L1180 479.88L1190 542.39L1200 544.62L1210 547.45L1220 504.48L1230 446.55L1240 495.61L1250 516.59L1260 498.03L1270 548.17L1280 555.9L1290 537.83L1300 540.54L1310 492.8L1320 525.01L1330 476L1340 485.96L1350 550.75" stroke="rgba(143, 195, 255, 1)" stroke-width="2"></path><path d="M0 460.77L10 471.18L20 429.04L30 443.5L40 447.7L50 506.77L60 443.25L70 496.85L80 544.61L90 514.34L100 508.18L110 520.09L120 484.03L130 468.14L140 479.12L150 441.76L160 476.42L170 483.46L180 465.38L190 460.11L200 516.47L210 508.23L220 449.32L230 513.26L240 492.26L250 530.2L260 481.58L270 504.57L280 514.1L290 465.32L300 412.04L310 349.76L320 313.67L330 285.27L340 350.67L350 396.28L360 412.11L370 363.95L380 356.3L390 405L400 368.93L410 392.47L420 393.53L430 401.74L440 426.27L450 366.31L460 384.61L470 402.2L480 368.64L490 388.3L500 369.64L510 381.52L520 388.06L530 353.2L540 420.32L550 360.4L560 308.35L570 372.21L580 430.96L590 363.9L600 358.5L610 377.83L620 438.63L630 463.35L640 507.34L650 481.45L660 469.71L670 529.29L680 497.44L690 550.13L700 500.66L710 528.08L720 484.83L730 455.8L740 401.16L750 443.63L760 399.73L770 443.52L780 487.72L790 556.8L800 547.74L810 518.23L820 515.43L830 559.61L840 531.49L850 469L860 510.86L870 469.67L880 539.53L890 556.09L900 495.57L910 495.89L920 487.72L930 475.05L940 418.84L950 483.46L960 438.67L970 446.96L980 392.36L990 420.17L1000 467.77L1010 507.55L1020 438.46L1030 401.08L1040 416.08L1050 372.1L1060 360.8L1070 391.16L1080 451.14L1090 481.28L1100 494.95L1110 452.52L1120 521.29L1130 507.19L1140 550.77L1150 556.14L1160 544.28L1170 486.06L1180 479.88L1190 542.39L1200 544.62L1210 547.45L1220 504.48L1230 446.55L1240 495.61L1250 516.59L1260 498.03L1270 548.17L1280 555.9L1290 537.83L1300 540.54L1310 492.8L1320 525.01L1330 476L1340 485.96L1350 550.75L1350 560L0 560z" fill="url(&quot;#SvgjsLinearGradient1235&quot;)"></path></g><defs><mask id="SvgjsMask1234"><rect width="1350" height="560" fill="#ffffff"></rect></mask><linearGradient x1="50%" y1="0%" x2="50%" y2="100%" id="SvgjsLinearGradient1235"><stop stop-opacity="0.65" stop-color="rgba(143, 195, 255, 1)" offset="0"></stop><stop stop-opacity="0" stop-color="#ffffff" offset="0.8"></stop></linearGradient></defs></svg>